<svg xmlns="http://www.w3.org/2000/svg" width="64" height="64" fill="none"><path fill="#ABB2BF" d="M31 12c-11.602 0-21 9.176-21 20.506 0 9.074 6.011 16.738 14.359 19.455 1.05.18 1.443-.436 1.443-.974 0-.487-.026-2.102-.026-3.82-5.276.949-6.641-1.255-7.061-2.409-.236-.59-1.26-2.41-2.152-2.896-.735-.385-1.785-1.333-.027-1.359 1.654-.026 2.835 1.487 3.229 2.102 1.89 3.102 4.909 2.23 6.116 1.692.184-1.333.735-2.23 1.339-2.743-4.672-.513-9.555-2.281-9.555-10.125 0-2.23.814-4.075 2.152-5.51-.21-.513-.945-2.615.21-5.435 0 0 1.76-.538 5.775 2.102a19.926 19.926 0 0 1 5.25-.692c1.785 0 3.57.23 5.25.692 4.017-2.666 5.776-2.102 5.776-2.102 1.154 2.82.42 4.922.21 5.434 1.338 1.436 2.152 3.256 2.152 5.511 0 7.87-4.909 9.612-9.581 10.125.761.64 1.417 1.871 1.417 3.794 0 2.742-.026 4.947-.026 5.639 0 .538.394 1.179 1.444.974 4.169-1.374 7.792-3.99 10.358-7.48A20.21 20.21 0 0 0 52 32.506C52 21.176 42.602 12 31 12Z"/></svg>